<svg width="40" height="40" viewBox="0 0 40 40" fill="none" xmlns="http://www.w3.org/2000/svg">
<g opacity="0.95" clip-path="url(#clip0_329_5)">
<path fill-rule="evenodd" clip-rule="evenodd" d="M11.4815 8.5C10.6711 8.5 9.89388 8.82192 9.32085 9.39495C8.74783 9.96798 8.4259 10.7452 8.4259 11.5556C8.4259 12.3659 8.74783 13.1431 9.32085 13.7162C9.89388 14.2892 10.6711 14.6111 11.4815 14.6111C12.2918 14.6111 13.069 14.2892 13.6421 13.7162C14.2151 13.1431 14.537 12.3659 14.537 11.5556C14.537 10.7452 14.2151 9.96798 13.6421 9.39495C13.069 8.82192 12.2918 8.5 11.4815 8.5ZM10.0926 11.5556C10.0926 11.1872 10.2389 10.8339 10.4994 10.5735C10.7598 10.313 11.1131 10.1667 11.4815 10.1667C11.8498 10.1667 12.2031 10.313 12.4636 10.5735C12.724 10.8339 12.8703 11.1872 12.8703 11.5556C12.8703 11.9239 12.724 12.2772 12.4636 12.5376C12.2031 12.7981 11.8498 12.9444 11.4815 12.9444C11.1131 12.9444 10.7598 12.7981 10.4994 12.5376C10.2389 12.2772 10.0926 11.9239 10.0926 11.5556ZM8.4259 16C8.4259 15.779 8.5137 15.567 8.66998 15.4107C8.82626 15.2545 9.03822 15.1667 9.25924 15.1667H13.7037C13.9247 15.1667 14.1367 15.2545 14.2929 15.4107C14.4492 15.567 14.537 15.779 14.537 16V30.4444C14.537 30.6655 14.4492 30.8774 14.2929 31.0337C14.1367 31.19 13.9247 31.2778 13.7037 31.2778H9.25924C9.03822 31.2778 8.82626 31.19 8.66998 31.0337C8.5137 30.8774 8.4259 30.6655 8.4259 30.4444V16ZM10.0926 16.8333V29.6111H12.8703V16.8333H10.0926ZM16.2037 16C16.2037 15.779 16.2915 15.567 16.4478 15.4107C16.604 15.2545 16.816 15.1667 17.037 15.1667H21.4815C21.7025 15.1667 21.9144 15.2545 22.0707 15.4107C22.227 15.567 22.3148 15.779 22.3148 16V16.4822L22.7981 16.2744C23.6315 15.9183 24.5156 15.6952 25.4181 15.6133C28.5015 15.3333 31.2037 17.7556 31.2037 20.8667V30.4444C31.2037 30.6655 31.1159 30.8774 30.9596 31.0337C30.8033 31.19 30.5914 31.2778 30.3703 31.2778H25.9259C25.7049 31.2778 25.4929 31.19 25.3366 31.0337C25.1804 30.8774 25.0926 30.6655 25.0926 30.4444V22.6667C25.0926 22.2983 24.9462 21.945 24.6858 21.6846C24.4253 21.4241 24.072 21.2778 23.7037 21.2778C23.3353 21.2778 22.9821 21.4241 22.7216 21.6846C22.4611 21.945 22.3148 22.2983 22.3148 22.6667V30.4444C22.3148 30.6655 22.227 30.8774 22.0707 31.0337C21.9144 31.19 21.7025 31.2778 21.4815 31.2778H17.037C16.816 31.2778 16.604 31.19 16.4478 31.0337C16.2915 30.8774 16.2037 30.6655 16.2037 30.4444V16ZM17.8703 16.8333V29.6111H20.6481V22.6667C20.6481 21.8563 20.97 21.0791 21.5431 20.5061C22.1161 19.933 22.8933 19.6111 23.7037 19.6111C24.5141 19.6111 25.2913 19.933 25.8643 20.5061C26.4373 21.0791 26.7592 21.8563 26.7592 22.6667V29.6111H29.537V20.8667C29.537 18.7511 27.6915 17.08 25.5703 17.2733C24.8417 17.3396 24.1278 17.5196 23.4548 17.8067L21.8103 18.5122C21.6835 18.5667 21.5451 18.5888 21.4076 18.5766C21.2701 18.5644 21.1378 18.5182 21.0226 18.4422C20.9074 18.3661 20.8128 18.2627 20.7475 18.1411C20.6821 18.0195 20.648 17.8836 20.6481 17.7456V16.8333H17.8703Z" fill="white"/>
</g>
<rect x="0.5" y="0.5" width="39" height="39" rx="7.5" stroke="white"/>
<defs>
<clipPath id="clip0_329_5">
<rect width="24" height="24" fill="white" transform="translate(8 8)"/>
</clipPath>
</defs>
</svg>
