<svg width="16" height="17" viewBox="0 0 16 17" fill="none" xmlns="http://www.w3.org/2000/svg">
<path d="M13.3333 3.16663H2.66666C1.93333 3.16663 1.33999 3.76663 1.33999 4.49996L1.33333 12.5C1.33333 13.2333 1.93333 13.8333 2.66666 13.8333H13.3333C14.0667 13.8333 14.6667 13.2333 14.6667 12.5V4.49996C14.6667 3.76663 14.0667 3.16663 13.3333 3.16663ZM13.0667 5.99996L8.35333 8.94663C8.13999 9.07996 7.85999 9.07996 7.64666 8.94663L2.93333 5.99996C2.76666 5.89329 2.66666 5.71329 2.66666 5.51996C2.66666 5.07329 3.15333 4.80663 3.53333 5.03996L7.99999 7.83329L12.4667 5.03996C12.8467 4.80663 13.3333 5.07329 13.3333 5.51996C13.3333 5.71329 13.2333 5.89329 13.0667 5.99996Z" fill="white"/>
</svg>
