<svg width="16" height="17" viewBox="0 0 16 17" fill="none" xmlns="http://www.w3.org/2000/svg">
<path d="M12.82 10.6731L11.1267 10.4798C10.72 10.4331 10.32 10.5731 10.0334 10.8598L8.80669 12.0865C6.92003 11.1265 5.37336 9.58647 4.41336 7.69314L5.64669 6.4598C5.93336 6.17314 6.07336 5.77314 6.02669 5.36647L5.83336 3.68647C5.75336 3.01314 5.18669 2.50647 4.50669 2.50647H3.35336C2.60003 2.50647 1.97336 3.13314 2.02003 3.88647C2.37336 9.5798 6.92669 14.1265 12.6134 14.4798C13.3667 14.5265 13.9934 13.8998 13.9934 13.1465V11.9931C14 11.3198 13.4934 10.7531 12.82 10.6731Z" fill="white"/>
</svg>
